<svg width="18" height="20" viewBox="0 0 18 20" fill="none" xmlns="http://www.w3.org/2000/svg">
<path d="M7.23997 8.39001C6.66997 8.39001 6.21997 8.89001 6.21997 9.50001C6.21997 10.11 6.67997 10.61 7.23997 10.61C7.80997 10.61 8.25997 10.11 8.25997 9.50001C8.26997 8.89001 7.80997 8.39001 7.23997 8.39001ZM10.89 8.39001C10.32 8.39001 9.86997 8.89001 9.86997 9.50001C9.86997 10.11 10.33 10.61 10.89 10.61C11.46 10.61 11.91 10.11 11.91 9.50001C11.91 8.89001 11.46 8.39001 10.89 8.39001Z" fill="black"/>
<path d="M15.75 0H2.35005C1.22005 0 0.300049 0.92 0.300049 2.06V15.58C0.300049 16.72 1.22005 17.64 2.35005 17.64H13.69L13.16 15.79L14.44 16.98L15.65 18.1L17.8 20V2.06C17.8 0.92 16.88 0 15.75 0ZM11.89 13.06C11.89 13.06 11.53 12.63 11.23 12.25C12.54 11.88 13.04 11.06 13.04 11.06C12.63 11.33 12.24 11.52 11.89 11.65C11.39 11.86 10.91 12 10.44 12.08C9.48005 12.26 8.60005 12.21 7.85005 12.07C7.28005 11.96 6.79005 11.8 6.38005 11.64C6.15005 11.55 5.90005 11.44 5.65005 11.3C5.62005 11.28 5.59005 11.27 5.56005 11.25C5.54005 11.24 5.53005 11.23 5.52005 11.22C5.34005 11.12 5.24005 11.05 5.24005 11.05C5.24005 11.05 5.72005 11.85 6.99005 12.23C6.69005 12.61 6.32005 13.06 6.32005 13.06C4.11005 12.99 3.27005 11.54 3.27005 11.54C3.27005 8.32 4.71005 5.71 4.71005 5.71C6.15005 4.63 7.52005 4.66 7.52005 4.66L7.62005 4.78C5.82005 5.3 4.99005 6.09 4.99005 6.09C4.99005 6.09 5.21005 5.97 5.58005 5.8C6.65005 5.33 7.50005 5.2 7.85005 5.17C7.91005 5.16 7.96005 5.15 8.02005 5.15C8.63005 5.07 9.32005 5.05 10.04 5.13C10.99 5.24 12.01 5.52 13.05 6.09C13.05 6.09 12.26 5.34 10.56 4.82L10.7 4.66C10.7 4.66 12.07 4.63 13.51 5.71C13.51 5.71 14.95 8.32 14.95 11.54C14.95 11.54 14.1 12.99 11.89 13.06V13.06Z" fill="black"/>
</svg>
